<svg xmlns="http://www.w3.org/2000/svg" viewBox="0 0 900 620" role="img" aria-labelledby="t d">
<title id="t">Números reales, potencias, raíces y logaritmos</title><desc id="d">Una recta real y tres tarjetas conectan potencia, raíz y logaritmo.</desc>
<defs><linearGradient id="bg" x1="0" y1="0" x2="1" y2="1"><stop stop-color="#f8fbff"/><stop offset="1" stop-color="#dceaff"/></linearGradient><filter id="s"><feDropShadow dx="0" dy="12" stdDeviation="14" flood-color="#17365f" flood-opacity=".12"/></filter></defs>
<rect width="100%" height="100%" rx="44" fill="url(#bg)"/>
<g font-family="Arial, sans-serif"><path d="M110 390H790" stroke="#17365f" stroke-width="6" stroke-linecap="round"/><g stroke="#17365f" stroke-width="4"><path d="M210 370V410"/><path d="M350 370V410"/><path d="M490 370V410"/><path d="M630 370V410"/></g><g fill="#1f4e8c"><circle cx="210" cy="390" r="17"/><circle cx="350" cy="390" r="17"/><circle cx="490" cy="390" r="17"/><circle cx="630" cy="390" r="17"/></g><text x="210" y="455" font-size="24" text-anchor="middle" fill="#536273">−2</text><text x="350" y="455" font-size="24" text-anchor="middle" fill="#536273">0</text><text x="490" y="455" font-size="24" text-anchor="middle" fill="#536273">√2</text><text x="630" y="455" font-size="24" text-anchor="middle" fill="#536273">π</text><g filter="url(#s)"><rect x="150" y="90" width="190" height="170" rx="28" fill="#fff" stroke="#bfd2ea" stroke-width="3"/><rect x="355" y="90" width="190" height="170" rx="28" fill="#fff" stroke="#b9e2d7" stroke-width="3"/><rect x="560" y="90" width="190" height="170" rx="28" fill="#fff" stroke="#d3c8f6" stroke-width="3"/></g><text x="245" y="170" font-size="58" text-anchor="middle" fill="#1f4e8c">2³</text><text x="450" y="170" font-size="58" text-anchor="middle" fill="#147d64">∛8</text><text x="655" y="170" font-size="44" text-anchor="middle" fill="#6d4fc2">log₂8</text><text x="245" y="220" font-size="24" text-anchor="middle" fill="#536273">potencia</text><text x="450" y="220" font-size="24" text-anchor="middle" fill="#536273">raíz</text><text x="655" y="220" font-size="24" text-anchor="middle" fill="#536273">exponente</text></g></svg>
